<svg width="96" height="77" viewBox="0 0 96 77" fill="none" xmlns="http://www.w3.org/2000/svg">
<g id="Frame 1000001991">
<path id="Subtract" fill-rule="evenodd" clip-rule="evenodd" d="M1.99995 0.5H35.5C38.5 0.500394 49.5001 3 53 13.5C53.5 15.0002 54 16.9001 54 18.5001C54 21.5 53.6507 25.0824 52.5 27.0001C52.3872 27.1879 52.2773 27.3758 52.1665 27.5653C50.8017 29.898 49.2861 32.4885 40.5 38.5001L52.5 55.9997C55.5 60.4997 63 68.9997 66.4999 70.5001C69.6719 71.8599 72.6342 71.6919 74.8883 71.5641C75.4768 71.5307 76.0169 71.5001 76.4999 71.5001C77.5 71.5001 78 71.7997 78 72.9997C78 74.4997 76 76.9997 71 76.9997C66 76.9997 61 76.4997 57 74.0001C55.5 73.5001 51.8 69.3001 47 62.5001C45.5812 60.4902 44.2184 58.3964 42.8784 56.3378C38.5515 49.6903 34.463 43.4089 29.5 41.5001C27.9126 41.0239 24.269 40.0941 21.8524 40.0067C21.6262 39.9985 21.41 40.09 21.25 40.2501C21.0899 40.4102 21 40.6273 21 40.8536V63.5001C21.1666 65.6668 22.5 70.3001 26.5 71.5001L31.5 72.5001C32 72.4997 32.5 73.1001 32.5 73.5001C32.5 74.0001 32.5 75.0001 30.5 75.0001H1.49995C0.499995 74.9997 -1.88351e-05 72.9997 1.49995 72.5001C5.33329 72.0001 12.8 69.6001 12 64.0001V9.0001C11.9962 8.97753 11.9924 8.95421 11.9884 8.93016C11.8166 7.88829 11.421 5.48839 7.99996 5.0001L1.99995 4.0001C0.499995 3.49966 -4.76837e-06 0.499663 1.99995 0.5ZM21 9.58209C21 8.22886 22.5333 4 26.6222 4C31.0412 4 35.7865 4.03698 39.1983 6.8454C41.9489 9.10963 44 12.5964 44 17.194V23.2836C43.6593 26.1592 41.4444 33.1284 35.3111 35.9701C34.1185 36.6468 31.7333 38 26.1111 38C24.0667 38 21 37.797 21 34.9552V9.58209Z" fill="white"/>
<circle id="Ellipse 4" cx="90" cy="70" r="6" fill="white"/>
</g>
</svg>
